{
    "asset" : {
        "copyright" : "Copyright (C) 2021 Logan Bier. All rights reserved.",
        "generator" : "Khronos glTF Blender I/O v1.5.17",
        "version" : "2.0"
    },
    "scene" : 0,
    "scenes" : [
        {
            "name" : "Scene",
            "nodes" : [
                0,
                1,
                2,
                3,
                4
            ]
        }
    ],
    "nodes" : [
        {
            "name" : "Sun",
            "rotation" : [
                -0.12227031588554382,
                -0.8581417202949524,
                -0.4370393455028534,
                0.24008196592330933
            ],
            "translation" : [
                -64.21827697753906,
                65.3836669921875,
                -204.7053985595703
            ]
        },
        {
            "mesh" : 0,
            "name" : "truck",
            "scale" : [
                1.6054998636245728,
                1,
                1.2000000476837158
            ],
            "translation" : [
                0,
                1.25,
                0.0430682897567749
            ]
        },
        {
            "mesh" : 1,
            "name" : "windows",
            "scale" : [
                1.6054998636245728,
                1,
                1.2000000476837158
            ],
            "translation" : [
                0,
                1.25,
                -0.47375059127807617
            ]
        },
        {
            "mesh" : 2,
            "name" : "headlights",
            "scale" : [
                1.6054998636245728,
                1,
                1.2000000476837158
            ],
            "translation" : [
                0,
                1.25,
                -0.47375059127807617
            ]
        },
        {
            "mesh" : 3,
            "name" : "taillights",
            "scale" : [
                1.6054998636245728,
                1,
                1.2000000476837158
            ],
            "translation" : [
                0,
                1.25,
                -0.47375059127807617
            ]
        }
    ],
    "materials" : [
        {
            "alphaMode" : "BLEND",
            "name" : "Material.002",
            "pbrMetallicRoughness" : {
                "baseColorFactor" : [
                    0.7356585264205933,
                    0.6582135558128357,
                    0.37003374099731445,
                    1
                ],
                "roughnessFactor" : 0.7110552787780762
            }
        },
        {
            "doubleSided" : true,
            "name" : "Material.003",
            "pbrMetallicRoughness" : {
                "baseColorFactor" : [
                    0.6038162708282471,
                    0.6038162708282471,
                    0.6038162708282471,
                    0.376884400844574
                ],
                "metallicFactor" : 0,
                "roughnessFactor" : 0.23366832733154297
            }
        },
        {
            "doubleSided" : true,
            "emissiveFactor" : [
                1,
                0.9306392073631287,
                0.6728578805923462
            ],
            "name" : "Material.004",
            "pbrMetallicRoughness" : {
                "baseColorFactor" : [
                    0.8000000715255737,
                    0.7662911415100098,
                    0.7914934754371643,
                    0.5
                ],
                "metallicFactor" : 0,
                "roughnessFactor" : 0.5
            }
        },
        {
            "doubleSided" : true,
            "emissiveFactor" : [
                0.08140428187555493,
                0,
                0.0003101480472482449
            ],
            "name" : "Material.001",
            "pbrMetallicRoughness" : {
                "baseColorFactor" : [
                    1,
                    0.9932871460914612,
                    0.8941043615341187,
                    0.5
                ],
                "metallicFactor" : 0,
                "roughnessFactor" : 0.5
            }
        }
    ],
    "meshes" : [
        {
            "name" : "Cube.002",
            "primitives" : [
                {
                    "attributes" : {
                        "POSITION" : 0,
                        "NORMAL" : 1,
                        "TEXCOORD_0" : 2
                    },
                    "indices" : 3,
                    "material" : 0
                }
            ]
        },
        {
            "name" : "Cube.004",
            "primitives" : [
                {
                    "attributes" : {
                        "POSITION" : 4,
                        "NORMAL" : 5,
                        "TEXCOORD_0" : 6
                    },
                    "indices" : 7,
                    "material" : 1
                }
            ]
        },
        {
            "name" : "Cube.001",
            "primitives" : [
                {
                    "attributes" : {
                        "POSITION" : 8,
                        "NORMAL" : 9,
                        "TEXCOORD_0" : 10
                    },
                    "indices" : 11,
                    "material" : 2
                }
            ]
        },
        {
            "name" : "Cube.003",
            "primitives" : [
                {
                    "attributes" : {
                        "POSITION" : 12,
                        "NORMAL" : 13,
                        "TEXCOORD_0" : 14
                    },
                    "indices" : 15,
                    "material" : 3
                }
            ]
        }
    ],
    "accessors" : [
        {
            "bufferView" : 0,
            "componentType" : 5126,
            "count" : 3568,
            "max" : [
                1.0399999618530273,
                1,
                2.719317674636841
            ],
            "min" : [
                -1.0399999618530273,
                -1.3623802661895752,
                -4.413258075714111
            ],
            "type" : "VEC3"
        },
        {
            "bufferView" : 1,
            "componentType" : 5126,
            "count" : 3568,
            "type" : "VEC3"
        },
        {
            "bufferView" : 2,
            "componentType" : 5126,
            "count" : 3568,
            "type" : "VEC2"
        },
        {
            "bufferView" : 3,
            "componentType" : 5123,
            "count" : 6480,
            "type" : "SCALAR"
        },
        {
            "bufferView" : 4,
            "componentType" : 5126,
            "count" : 73,
            "max" : [
                1,
                1,
                1.783006191253662
            ],
            "min" : [
                -1,
                -0.009747743606567383,
                -1
            ],
            "type" : "VEC3"
        },
        {
            "bufferView" : 5,
            "componentType" : 5126,
            "count" : 73,
            "type" : "VEC3"
        },
        {
            "bufferView" : 6,
            "componentType" : 5126,
            "count" : 73,
            "type" : "VEC2"
        },
        {
            "bufferView" : 7,
            "componentType" : 5123,
            "count" : 144,
            "type" : "SCALAR"
        },
        {
            "bufferView" : 8,
            "componentType" : 5126,
            "count" : 8,
            "max" : [
                1,
                -0.22133111953735352,
                3
            ],
            "min" : [
                -1,
                -0.48088741302490234,
                3
            ],
            "type" : "VEC3"
        },
        {
            "bufferView" : 9,
            "componentType" : 5126,
            "count" : 8,
            "type" : "VEC3"
        },
        {
            "bufferView" : 10,
            "componentType" : 5126,
            "count" : 8,
            "type" : "VEC2"
        },
        {
            "bufferView" : 11,
            "componentType" : 5123,
            "count" : 12,
            "type" : "SCALAR"
        },
        {
            "bufferView" : 12,
            "componentType" : 5126,
            "count" : 8,
            "max" : [
                1,
                -0.13977882266044617,
                -3.832575559616089
            ],
            "min" : [
                -1,
                -0.4265192151069641,
                -3.832575559616089
            ],
            "type" : "VEC3"
        },
        {
            "bufferView" : 13,
            "componentType" : 5126,
            "count" : 8,
            "type" : "VEC3"
        },
        {
            "bufferView" : 14,
            "componentType" : 5126,
            "count" : 8,
            "type" : "VEC2"
        },
        {
            "bufferView" : 15,
            "componentType" : 5123,
            "count" : 12,
            "type" : "SCALAR"
        }
    ],
    "bufferViews" : [
        {
            "buffer" : 0,
            "byteLength" : 42816,
            "byteOffset" : 0
        },
        {
            "buffer" : 0,
            "byteLength" : 42816,
            "byteOffset" : 42816
        },
        {
            "buffer" : 0,
            "byteLength" : 28544,
            "byteOffset" : 85632
        },
        {
            "buffer" : 0,
            "byteLength" : 12960,
            "byteOffset" : 114176
        },
        {
            "buffer" : 0,
            "byteLength" : 876,
            "byteOffset" : 127136
        },
        {
            "buffer" : 0,
            "byteLength" : 876,
            "byteOffset" : 128012
        },
        {
            "buffer" : 0,
            "byteLength" : 584,
            "byteOffset" : 128888
        },
        {
            "buffer" : 0,
            "byteLength" : 288,
            "byteOffset" : 129472
        },
        {
            "buffer" : 0,
            "byteLength" : 96,
            "byteOffset" : 129760
        },
        {
            "buffer" : 0,
            "byteLength" : 96,
            "byteOffset" : 129856
        },
        {
            "buffer" : 0,
            "byteLength" : 64,
            "byteOffset" : 129952
        },
        {
            "buffer" : 0,
            "byteLength" : 24,
            "byteOffset" : 130016
        },
        {
            "buffer" : 0,
            "byteLength" : 96,
            "byteOffset" : 130040
        },
        {
            "buffer" : 0,
            "byteLength" : 96,
            "byteOffset" : 130136
        },
        {
            "buffer" : 0,
            "byteLength" : 64,
            "byteOffset" : 130232
        },
        {
            "buffer" : 0,
            "byteLength" : 24,
            "byteOffset" : 130296
        }
    ],
    "buffers" : [
        {
            "byteLength" : 130320,
            "uri" : "data:application/octet-stream;base64,"
        }
    ]
}
