{
    "asset" : {
        "copyright" : "Copyright (C) 2021 Logan Bier. All rights reserved.",
        "generator" : "Khronos glTF Blender I/O v1.5.17",
        "version" : "2.0"
    },
    "scene" : 0,
    "scenes" : [
        {
            "name" : "Scene",
            "nodes" : [
                0,
                1,
                2
            ]
        }
    ],
    "nodes" : [
        {
            "mesh" : 0,
            "name" : "tire",
            "rotation" : [
                0.5,
                0.5,
                -0.5,
                0.4999999701976776
            ],
            "scale" : [
                2.4000000953674316,
                2.4000000953674316,
                2.4000000953674316
            ]
        },
        {
            "mesh" : 1,
            "name" : "rim",
            "rotation" : [
                0.5,
                0.5,
                -0.5,
                0.4999999701976776
            ],
            "scale" : [
                2.4000000953674316,
                2.4000000953674316,
                2.4000000953674316
            ]
        },
        {
            "mesh" : 2,
            "name" : "rim_components",
            "rotation" : [
                0.6532815098762512,
                0.6532815098762512,
                -0.2705981135368347,
                0.27059805393218994
            ],
            "scale" : [
                2.4000000953674316,
                1.6201828718185425,
                2.4000000953674316
            ]
        }
    ],
    "materials" : [
        {
            "name" : "Material.004",
            "pbrMetallicRoughness" : {
                "baseColorFactor" : [
                    0.03310251608490944,
                    0.03310251608490944,
                    0.03310251608490944,
                    1
                ],
                "metallicFactor" : 0,
                "roughnessFactor" : 0.9221105575561523
            }
        },
        {
            "name" : "Material.011",
            "pbrMetallicRoughness" : {
                "baseColorFactor" : [
                    0.800000011920929,
                    0.800000011920929,
                    0.800000011920929,
                    1
                ],
                "roughnessFactor" : 0.18341708183288574
            }
        },
        {
            "name" : "Material.001",
            "pbrMetallicRoughness" : {
                "baseColorFactor" : [
                    0.800000011920929,
                    0.800000011920929,
                    0.800000011920929,
                    1
                ],
                "roughnessFactor" : 0.5
            }
        }
    ],
    "meshes" : [
        {
            "name" : "Cylinder.003",
            "primitives" : [
                {
                    "attributes" : {
                        "POSITION" : 0,
                        "NORMAL" : 1,
                        "TEXCOORD_0" : 2
                    },
                    "indices" : 3,
                    "material" : 0
                }
            ]
        },
        {
            "name" : "Cylinder.004",
            "primitives" : [
                {
                    "attributes" : {
                        "POSITION" : 4,
                        "NORMAL" : 5,
                        "TEXCOORD_0" : 6
                    },
                    "indices" : 7,
                    "material" : 1
                }
            ]
        },
        {
            "name" : "Cylinder.006",
            "primitives" : [
                {
                    "attributes" : {
                        "POSITION" : 8,
                        "NORMAL" : 9,
                        "TEXCOORD_0" : 10
                    },
                    "indices" : 11,
                    "material" : 2
                }
            ]
        }
    ],
    "accessors" : [
        {
            "bufferView" : 0,
            "componentType" : 5126,
            "count" : 37857,
            "max" : [
                0.20319999754428864,
                0.10159999877214432,
                0.20319999754428864
            ],
            "min" : [
                -0.20319999754428864,
                -0.10159999877214432,
                -0.20319999754428864
            ],
            "type" : "VEC3"
        },
        {
            "bufferView" : 1,
            "componentType" : 5126,
            "count" : 37857,
            "type" : "VEC3"
        },
        {
            "bufferView" : 2,
            "componentType" : 5126,
            "count" : 37857,
            "type" : "VEC2"
        },
        {
            "bufferView" : 3,
            "componentType" : 5123,
            "count" : 56832,
            "type" : "SCALAR"
        },
        {
            "bufferView" : 4,
            "componentType" : 5126,
            "count" : 8160,
            "max" : [
                0.12967443466186523,
                0.10121738165616989,
                0.12967418134212494
            ],
            "min" : [
                -0.1296742707490921,
                -0.10121738165616989,
                -0.1296745240688324
            ],
            "type" : "VEC3"
        },
        {
            "bufferView" : 5,
            "componentType" : 5126,
            "count" : 8160,
            "type" : "VEC3"
        },
        {
            "bufferView" : 6,
            "componentType" : 5126,
            "count" : 8160,
            "type" : "VEC2"
        },
        {
            "bufferView" : 7,
            "componentType" : 5123,
            "count" : 12240,
            "type" : "SCALAR"
        },
        {
            "bufferView" : 8,
            "componentType" : 5126,
            "count" : 640,
            "max" : [
                0.12192008644342422,
                0.09865552186965942,
                0.12191984057426453
            ],
            "min" : [
                -0.12191992253065109,
                -0.09865552186965942,
                -0.12192017585039139
            ],
            "type" : "VEC3"
        },
        {
            "bufferView" : 9,
            "componentType" : 5126,
            "count" : 640,
            "type" : "VEC3"
        },
        {
            "bufferView" : 10,
            "componentType" : 5126,
            "count" : 640,
            "type" : "VEC2"
        },
        {
            "bufferView" : 11,
            "componentType" : 5123,
            "count" : 1140,
            "type" : "SCALAR"
        }
    ],
    "bufferViews" : [
        {
            "buffer" : 0,
            "byteLength" : 454284,
            "byteOffset" : 0
        },
        {
            "buffer" : 0,
            "byteLength" : 454284,
            "byteOffset" : 454284
        },
        {
            "buffer" : 0,
            "byteLength" : 302856,
            "byteOffset" : 908568
        },
        {
            "buffer" : 0,
            "byteLength" : 113664,
            "byteOffset" : 1211424
        },
        {
            "buffer" : 0,
            "byteLength" : 97920,
            "byteOffset" : 1325088
        },
        {
            "buffer" : 0,
            "byteLength" : 97920,
            "byteOffset" : 1423008
        },
        {
            "buffer" : 0,
            "byteLength" : 65280,
            "byteOffset" : 1520928
        },
        {
            "buffer" : 0,
            "byteLength" : 24480,
            "byteOffset" : 1586208
        },
        {
            "buffer" : 0,
            "byteLength" : 7680,
            "byteOffset" : 1610688
        },
        {
            "buffer" : 0,
            "byteLength" : 7680,
            "byteOffset" : 1618368
        },
        {
            "buffer" : 0,
            "byteLength" : 5120,
            "byteOffset" : 1626048
        },
        {
            "buffer" : 0,
            "byteLength" : 2280,
            "byteOffset" : 1631168
        }
    ],
    "buffers" : [
        {
            "byteLength" : 1633448,
            "uri" : "data:application/octet-stream;base64,"
        }
    ]
}
