{
    "asset" : {
        "copyright" : "Copyright (C) 2021 Logan Bier. All rights reserved.",
        "generator" : "Khronos glTF Blender I/O v1.4.40",
        "version" : "2.0"
    },
    "scene" : 0,
    "scenes" : [
        {
            "name" : "Scene",
            "nodes" : [
                0,
                1,
                2,
                3,
                4,
                5
            ]
        }
    ],
    "nodes" : [
        {
            "mesh" : 0,
            "name" : "Sphere",
            "rotation" : [
                0,
                -1,
                0,
                7.549790126404332e-08
            ],
            "translation" : [
                0.021218009293079376,
                0.5513668656349182,
                -1.5237715244293213
            ]
        },
        {
            "mesh" : 1,
            "name" : "Sphere.001",
            "rotation" : [
                0,
                -1,
                0,
                7.549790126404332e-08
            ],
            "scale" : [
                0.8317854404449463,
                0.8317854404449463,
                0.8317854404449463
            ],
            "translation" : [
                0.021218009293079376,
                0.8447242379188538,
                -1.5237715244293213
            ]
        },
        {
            "mesh" : 2,
            "name" : "Sphere.002",
            "rotation" : [
                0,
                -1,
                0,
                7.549790126404332e-08
            ],
            "scale" : [
                0.6202147603034973,
                0.6202147603034973,
                0.6202147603034973
            ],
            "translation" : [
                0.021218039095401764,
                1.9206221103668213,
                -1.3251612186431885
            ]
        },
        {
            "mesh" : 3,
            "name" : "Torus.003",
            "rotation" : [
                0.7071068286895752,
                -0.7071067690849304,
                0,
                5.338507946817117e-08
            ],
            "scale" : [
                0.6448768377304077,
                0.6448768377304077,
                0.6448768377304077
            ],
            "translation" : [
                -0.6444430351257324,
                0.36750248074531555,
                0.009513713419437408
            ]
        },
        {
            "mesh" : 4,
            "name" : "Torus.001",
            "rotation" : [
                0.7071068286895752,
                -0.7071067690849304,
                0,
                5.338507946817117e-08
            ],
            "scale" : [
                0.6448768377304077,
                0.6448768377304077,
                0.6448768377304077
            ],
            "translation" : [
                0.6630315184593201,
                0.36750248074531555,
                0.00951351597905159
            ]
        },
        {
            "mesh" : 5,
            "name" : "Cylinder.005",
            "rotation" : [
                0.7071068286895752,
                -0.7071067690849304,
                0,
                5.338507946817117e-08
            ],
            "scale" : [
                0.4704377055168152,
                0.740900456905365,
                0.4704377055168152
            ],
            "translation" : [
                0.002955378033220768,
                0.36748412251472473,
                0.0074307918548583984
            ]
        }
    ],
    "meshes" : [
        {
            "name" : "Sphere",
            "primitives" : [
                {
                    "attributes" : {
                        "POSITION" : 0,
                        "NORMAL" : 1,
                        "TEXCOORD_0" : 2
                    },
                    "indices" : 3
                }
            ]
        },
        {
            "name" : "Sphere.002",
            "primitives" : [
                {
                    "attributes" : {
                        "POSITION" : 4,
                        "NORMAL" : 5,
                        "TEXCOORD_0" : 6
                    },
                    "indices" : 3
                }
            ]
        },
        {
            "name" : "Sphere.003",
            "primitives" : [
                {
                    "attributes" : {
                        "POSITION" : 7,
                        "NORMAL" : 8,
                        "TEXCOORD_0" : 9
                    },
                    "indices" : 3
                }
            ]
        },
        {
            "name" : "Torus.003",
            "primitives" : [
                {
                    "attributes" : {
                        "POSITION" : 10,
                        "NORMAL" : 11,
                        "TEXCOORD_0" : 12
                    },
                    "indices" : 13
                }
            ]
        },
        {
            "name" : "Torus.004",
            "primitives" : [
                {
                    "attributes" : {
                        "POSITION" : 14,
                        "NORMAL" : 15,
                        "TEXCOORD_0" : 16
                    },
                    "indices" : 13
                }
            ]
        },
        {
            "name" : "Cylinder",
            "primitives" : [
                {
                    "attributes" : {
                        "POSITION" : 17,
                        "NORMAL" : 18,
                        "TEXCOORD_0" : 19
                    },
                    "indices" : 20
                }
            ]
        }
    ],
    "accessors" : [
        {
            "bufferView" : 0,
            "componentType" : 5126,
            "count" : 559,
            "max" : [
                1.000000238418579,
                1.6708321571350098,
                1.0000003576278687
            ],
            "min" : [
                -0.9999997615814209,
                -0.17276543378829956,
                -2.009254217147827
            ],
            "type" : "VEC3"
        },
        {
            "bufferView" : 1,
            "componentType" : 5126,
            "count" : 559,
            "type" : "VEC3"
        },
        {
            "bufferView" : 2,
            "componentType" : 5126,
            "count" : 559,
            "type" : "VEC2"
        },
        {
            "bufferView" : 3,
            "componentType" : 5123,
            "count" : 2880,
            "type" : "SCALAR"
        },
        {
            "bufferView" : 4,
            "componentType" : 5126,
            "count" : 559,
            "max" : [
                1.000000238418579,
                1,
                1.0000003576278687
            ],
            "min" : [
                -0.9999998211860657,
                -1,
                -1
            ],
            "type" : "VEC3"
        },
        {
            "bufferView" : 5,
            "componentType" : 5126,
            "count" : 559,
            "type" : "VEC3"
        },
        {
            "bufferView" : 6,
            "componentType" : 5126,
            "count" : 559,
            "type" : "VEC2"
        },
        {
            "bufferView" : 7,
            "componentType" : 5126,
            "count" : 559,
            "max" : [
                1.000000238418579,
                1,
                1.0000003576278687
            ],
            "min" : [
                -0.9999998211860657,
                -1,
                -1
            ],
            "type" : "VEC3"
        },
        {
            "bufferView" : 8,
            "componentType" : 5126,
            "count" : 559,
            "type" : "VEC3"
        },
        {
            "bufferView" : 9,
            "componentType" : 5126,
            "count" : 559,
            "type" : "VEC2"
        },
        {
            "bufferView" : 10,
            "componentType" : 5126,
            "count" : 637,
            "max" : [
                0.5800000429153442,
                0.25,
                0.5800000429153442
            ],
            "min" : [
                -0.5800000429153442,
                -0.25,
                -0.5800000429153442
            ],
            "type" : "VEC3"
        },
        {
            "bufferView" : 11,
            "componentType" : 5126,
            "count" : 637,
            "type" : "VEC3"
        },
        {
            "bufferView" : 12,
            "componentType" : 5126,
            "count" : 637,
            "type" : "VEC2"
        },
        {
            "bufferView" : 13,
            "componentType" : 5123,
            "count" : 3456,
            "type" : "SCALAR"
        },
        {
            "bufferView" : 14,
            "componentType" : 5126,
            "count" : 637,
            "max" : [
                0.5800000429153442,
                0.25,
                0.5800000429153442
            ],
            "min" : [
                -0.5800000429153442,
                -0.25,
                -0.5800000429153442
            ],
            "type" : "VEC3"
        },
        {
            "bufferView" : 15,
            "componentType" : 5126,
            "count" : 637,
            "type" : "VEC3"
        },
        {
            "bufferView" : 16,
            "componentType" : 5126,
            "count" : 637,
            "type" : "VEC2"
        },
        {
            "bufferView" : 17,
            "componentType" : 5126,
            "count" : 241,
            "max" : [
                0.007852137088775635,
                1,
                1
            ],
            "min" : [
                -1,
                -1,
                -1
            ],
            "type" : "VEC3"
        },
        {
            "bufferView" : 18,
            "componentType" : 5126,
            "count" : 241,
            "type" : "VEC3"
        },
        {
            "bufferView" : 19,
            "componentType" : 5126,
            "count" : 241,
            "type" : "VEC2"
        },
        {
            "bufferView" : 20,
            "componentType" : 5123,
            "count" : 600,
            "type" : "SCALAR"
        }
    ],
    "bufferViews" : [
        {
            "buffer" : 0,
            "byteLength" : 6708,
            "byteOffset" : 0
        },
        {
            "buffer" : 0,
            "byteLength" : 6708,
            "byteOffset" : 6708
        },
        {
            "buffer" : 0,
            "byteLength" : 4472,
            "byteOffset" : 13416
        },
        {
            "buffer" : 0,
            "byteLength" : 5760,
            "byteOffset" : 17888
        },
        {
            "buffer" : 0,
            "byteLength" : 6708,
            "byteOffset" : 23648
        },
        {
            "buffer" : 0,
            "byteLength" : 6708,
            "byteOffset" : 30356
        },
        {
            "buffer" : 0,
            "byteLength" : 4472,
            "byteOffset" : 37064
        },
        {
            "buffer" : 0,
            "byteLength" : 6708,
            "byteOffset" : 41536
        },
        {
            "buffer" : 0,
            "byteLength" : 6708,
            "byteOffset" : 48244
        },
        {
            "buffer" : 0,
            "byteLength" : 4472,
            "byteOffset" : 54952
        },
        {
            "buffer" : 0,
            "byteLength" : 7644,
            "byteOffset" : 59424
        },
        {
            "buffer" : 0,
            "byteLength" : 7644,
            "byteOffset" : 67068
        },
        {
            "buffer" : 0,
            "byteLength" : 5096,
            "byteOffset" : 74712
        },
        {
            "buffer" : 0,
            "byteLength" : 6912,
            "byteOffset" : 79808
        },
        {
            "buffer" : 0,
            "byteLength" : 7644,
            "byteOffset" : 86720
        },
        {
            "buffer" : 0,
            "byteLength" : 7644,
            "byteOffset" : 94364
        },
        {
            "buffer" : 0,
            "byteLength" : 5096,
            "byteOffset" : 102008
        },
        {
            "buffer" : 0,
            "byteLength" : 2892,
            "byteOffset" : 107104
        },
        {
            "buffer" : 0,
            "byteLength" : 2892,
            "byteOffset" : 109996
        },
        {
            "buffer" : 0,
            "byteLength" : 1928,
            "byteOffset" : 112888
        },
        {
            "buffer" : 0,
            "byteLength" : 1200,
            "byteOffset" : 114816
        }
    ],
    "buffers" : [
        {
            "byteLength" : 116016,
            "uri" : "data:application/octet-stream;base64,"
        }
    ]
}
